<?xml version="1.0" encoding="UTF-8" standalone="no"?>
<!-- Created with Inkscape (http://www.inkscape.org/) -->

<svg
   xmlns:dc="http://purl.org/dc/elements/1.1/"
   xmlns:cc="http://creativecommons.org/ns#"
   xmlns:rdf="http://www.w3.org/1999/02/22-rdf-syntax-ns#"
   xmlns:svg="http://www.w3.org/2000/svg"
   xmlns="http://www.w3.org/2000/svg"
   xmlns:sodipodi="http://sodipodi.sourceforge.net/DTD/sodipodi-0.dtd"
   xmlns:inkscape="http://www.inkscape.org/namespaces/inkscape"
   width="8.1999998mm"
   height="8.1999998mm"
   viewBox="0 0 8.1999998 8.1999998"
   version="1.1"
   id="svg77"
   inkscape:version="0.92.5 (2060ec1f9f, 2020-04-08)"
   sodipodi:docname="favicon.svg">
  <defs
     id="defs71" />
  <sodipodi:namedview
     id="base"
     pagecolor="#ffffff"
     bordercolor="#666666"
     borderopacity="1.0"
     inkscape:pageopacity="0.0"
     inkscape:pageshadow="2"
     inkscape:zoom="5.6"
     inkscape:cx="20.518063"
     inkscape:cy="38.550402"
     inkscape:document-units="mm"
     inkscape:current-layer="layer1"
     showgrid="false"
     inkscape:window-width="1864"
     inkscape:window-height="1016"
     inkscape:window-x="56"
     inkscape:window-y="27"
     inkscape:window-maximized="1" />
  <metadata
     id="metadata74">
    <rdf:RDF>
      <cc:Work
         rdf:about="">
        <dc:format>image/svg+xml</dc:format>
        <dc:type
           rdf:resource="http://purl.org/dc/dcmitype/StillImage" />
        <dc:title></dc:title>
      </cc:Work>
    </rdf:RDF>
  </metadata>
  <g
     inkscape:label="Layer 1"
     inkscape:groupmode="layer"
     id="layer1"
     transform="translate(0,-288.8)">
    <g
       aria-label="V"
       style="font-style:normal;font-weight:normal;font-size:10.58333302px;line-height:1.25;font-family:sans-serif;letter-spacing:0px;word-spacing:0px;fill:#000000;fill-opacity:1;stroke:none;stroke-width:0.26458332"
       id="text81">
      <path class="content-fill"
         d="m 8.1263536,289.02116 q -0.1136882,0.0517 -0.217041,0.093 -0.1033529,0.031 -0.2067058,0.0827 -0.1963704,0.12402 -0.2997233,0.2067 -0.093017,0.0723 -0.2273762,0.13436 -0.051676,0.093 -0.1963705,0.1447 -0.062012,0.0723 -0.1240234,0.14469 -0.062012,0.062 -0.1343587,0.13436 -0.020671,0.031 -0.031006,0.0723 -0.010335,0.031 -0.062012,0.0413 -0.062012,0.19637 -0.1033529,0.29972 -0.031006,0.093 -0.1136881,0.1447 0.010335,0.13435 -0.072347,0.1757 -0.010335,0.12402 -0.062012,0.27905 -0.051677,0.14469 -0.1033529,0.25838 -0.020671,0.0413 -0.010335,0.0723 0.010335,0.031 0,0.062 -0.020671,0.0827 -0.062012,0.16536 -0.041341,0.0724 -0.041341,0.16537 -0.1240234,0.2067 -0.1550292,0.45475 -0.031006,0.24805 -0.1343588,0.44442 -0.051676,0.10335 -0.051676,0.19637 0.010335,0.0827 -0.072347,0.10335 0.041341,0.0724 0,0.1447 -0.041341,0.062 -0.062012,0.13435 -0.031006,0.0827 -0.031006,0.1757 0,0.0827 -0.082682,0.12403 -0.1033528,0.28939 -0.1550293,0.5581 -0.041341,0.25839 -0.144694,0.50643 0.020671,0.0413 0.010335,0.062 -0.010335,0.0103 -0.010335,0.062 -0.062012,0.062 -0.1033528,0.16536 -0.041341,0.10335 -0.041341,0.19637 -0.020671,0.0517 -0.072347,0.11369 -0.041341,0.0517 -0.062012,0.11369 -0.020671,0.031 -0.020671,0.0723 0.010335,0.031 0,0.062 -0.062012,0.1757 -0.1550293,0.34106 -0.082682,0.16536 -0.1343587,0.33073 -0.031006,0.15503 -0.072347,0.19637 -0.041341,0.031 -0.010335,0.10335 -0.041341,0.062 -0.072347,0.15503 -0.031006,0.0827 -0.031006,0.15503 -0.010335,0.062 -0.062012,0.15503 -0.041341,0.10335 -0.072347,0.1757 -0.1033529,-0.0103 -0.2170411,-0.0413 -0.082682,-0.12402 -0.1550292,-0.24805 -0.072347,-0.12402 -0.1860352,-0.22737 0.041341,-0.031 0,-0.0414 -0.031006,-0.0207 -0.020671,-0.0723 -0.1136881,-0.1757 -0.1963704,-0.36174 -0.082682,-0.19637 -0.072347,-0.45475 -0.031006,-0.0517 -0.051676,-0.093 -0.020671,-0.0517 -0.072347,-0.093 0.051676,-0.0413 0.031006,-0.11368 -0.020671,-0.0723 -0.031006,-0.12403 -0.093018,-0.0517 -0.1343588,-0.16536 -0.041341,-0.12402 -0.1033528,-0.18604 -0.031006,-0.29972 -0.1550293,-0.59944 -0.082682,-0.0207 -0.1343587,0.031 -0.051676,0.0413 -0.1136882,-0.0103 -0.010335,-0.11369 0.051677,-0.16537 0.062012,-0.0517 0.1033528,-0.12402 0,-0.13436 -0.072347,-0.22738 -0.072347,-0.093 -0.051676,-0.19637 -0.093018,-0.0723 -0.082682,-0.0827 0.020671,-0.0207 0.020671,-0.0724 -0.062012,-0.0207 -0.082682,-0.062 -0.020671,-0.0413 -0.031006,-0.093 -0.010335,-0.0517 -0.031006,-0.093 -0.010335,-0.0517 -0.072347,-0.0723 H 2.2869169 q 0.031006,-0.10335 0.041341,-0.14469 0.020671,-0.0517 0.072347,-0.0723 -0.031006,-0.093 -0.072347,-0.18604 -0.031006,-0.093 -0.041341,-0.23771 -0.051676,-0.0827 -0.093018,-0.14469 -0.041341,-0.0723 -0.051676,-0.18604 -0.041341,-0.062 -0.1033529,-0.093 -0.062012,-0.031 -0.093018,-0.093 0.051676,-0.0517 0,-0.11369 -0.062012,0.0103 -0.093018,0 -0.020671,-0.0103 -0.082682,0.0207 -0.020671,-0.12402 0.051676,-0.15503 0.072347,-0.0413 0.031006,-0.15503 -0.020671,-0.0207 -0.051676,-0.031 -0.031006,-0.0207 -0.041341,-0.062 0.051676,-0.11368 -0.041341,-0.21704 -0.082682,-0.11369 -0.1653646,-0.1757 0.010335,-0.0517 0.041341,-0.0723 0.041341,-0.0207 0.062012,-0.062 -0.010335,-0.10335 -0.010335,-0.15503 0.010335,-0.062 -0.041341,-0.11368 0.010335,-0.15503 -0.031006,-0.13436 -0.041341,0.0207 -0.082682,0.031 -0.062012,-0.062 -0.062012,-0.093 0.010335,-0.031 -0.010335,-0.0517 0.1136881,-0.0723 0.1136881,-0.13436 0.010335,-0.062 -0.082682,-0.0724 0.051676,-0.0413 0.010335,-0.10335 -0.031006,-0.062 -0.010335,-0.11369 -0.072347,-0.031 -0.093017,-0.12402 -0.031006,-0.093 -0.020671,-0.16536 -0.031006,-0.0517 -0.072347,-0.10336 -0.051677,-0.0517 -0.031006,-0.11369 -0.082682,-0.0827 -0.144694,-0.18603 -0.072347,-0.10335 -0.18603514,-0.15503 -0.18603515,0.0207 -0.39274087,-0.0207 -0.21704101,-0.0517 -0.3720703,-0.031 -0.07234701,-0.0207 -0.11368815,-0.0827 -0.05167643,-0.062 0.01033528,-0.13436 0.20670573,-0.0207 0.41341145,0.0103 0.19637044,0.0207 0.41341145,0.0413 0.13435872,0.0207 0.27905268,0.0207 0.1343588,0 0.2790528,0.0103 0.1550293,0.0207 0.3100586,0.0413 0.1653645,0.0207 0.2790527,0.0103 0.1860351,-0.0103 0.361735,-0.0207 0.1860351,-0.0103 0.3513997,0 0.093018,0.0103 0.1756999,-0.0103 0.093018,-0.0207 0.1860351,-0.0207 0.1963705,0 0.3927409,-0.0413 0.2067057,-0.0413 0.3824056,0.0103 0.1240234,0.0207 0.2377116,0.0103 0.1240234,-0.0207 0.2273763,0.031 0.02067,0.11369 -0.041341,0.15503 -0.051676,0.0413 -0.1240234,0.0723 -0.062012,-0.0517 -0.1240234,-0.062 -0.062012,-0.0103 -0.1240235,0 -0.062012,0 -0.1343587,0 -0.062012,0 -0.1343587,-0.031 -0.020671,0.0517 -0.051676,0.0723 -0.031006,0.0207 -0.051677,0.062 -0.051676,-0.0207 -0.082682,0 -0.031006,0.0103 -0.051676,-0.0103 -0.1033529,0.0724 -0.144694,0.0207 -0.062012,0.0827 -0.041341,0.0827 0.031006,-0.0103 0.010335,0.031 -0.020671,0 -0.062012,0.0207 -0.041341,0.0207 -0.072347,0 0.010335,0.1447 -0.020671,0.1757 -0.031006,0.0207 -0.072347,0.062 -0.010335,0.15503 0.041341,0.28939 0.051676,0.10335 0.062012,0.21704 0.020671,0.10335 0.1033529,0.12403 -0.051676,0.062 -0.020671,0.13435 0.041341,0.0723 0.051676,0.15503 0.093018,0.15503 0.1653646,0.1757 0.010335,0.20671 0.020671,0.33073 0.020671,0.11369 0.1136881,0.19637 0.010335,0.1757 0.072347,0.29973 0.062012,0.11368 0.072347,0.28938 0.1343588,0.062 0.093018,0.0724 -0.031006,0 -0.031006,0.0413 0.020671,0.0207 0.051676,0 0.041341,-0.0207 0.062012,0.0103 0.020671,0.0413 -0.020671,0.0723 -0.031006,0.031 -0.051676,0.062 0.010335,0.062 0.062012,0.0827 0.051676,0.0103 0.1033529,0.031 -0.041341,0.0517 -0.041341,0.062 0.010335,0 -0.010335,0.0413 0.1136882,-0.031 0.1136882,-0.0103 0,0.0103 -0.020671,0.0413 -0.010335,0.0207 -0.031006,0.0413 -0.010335,0.0207 0.010335,0.0517 0.010335,0.0413 0.051677,0.0413 0.041341,-0.0103 0.062012,0.0103 0,0.093 -0.051676,0.14469 0.031006,0.0517 0.093018,0.031 0.062012,-0.0207 0.082682,0.0517 0,0.0413 -0.031006,0.0517 -0.020671,0.0103 -0.031006,0.0517 0,0.0723 0.041341,0.10335 0.051676,0.0207 0.093017,0.0723 -0.041341,0.0827 -0.02067,0.16536 0.02067,0.0827 0.1033528,0.10335 0.031006,0.11369 0.051677,0.23772 0.020671,0.12402 0.051676,0.23771 0.031006,0.11368 0.082682,0.2067 0.062012,0.0827 0.1756998,0.12403 -0.031006,0.12402 -0.010335,0.13435 0.031006,0.0103 0.051677,0.031 0,0.0517 -0.010335,0.10335 0,0.0413 0.020671,0.0723 0.041341,-0.0103 0.1136881,-0.031 0.082682,-0.0207 0.062012,-0.13435 0.062012,-0.093 0.072347,-0.10336 0.010335,-0.0207 0.031006,-0.0207 0.1963704,-0.5581 0.3927409,-1.06453 0.1963704,-0.51677 0.3100585,-1.07487 0.051677,-0.0827 0.062012,-0.18604 0.02067,-0.11369 0.062012,-0.21704 0.020671,-0.062 0.062012,-0.11369 0.051676,-0.062 0.072347,-0.14469 0.031006,-0.093 0.041341,-0.16536 0.010335,-0.0723 0.041341,-0.18604 0.082682,-0.14469 0.072347,-0.20671 -0.010335,-0.062 0.010335,-0.11368 0.020671,-0.0517 0.041341,-0.0827 0.020671,-0.031 0.031006,-0.0723 0.020671,-0.1447 0,-0.27906 -0.020671,-0.14469 0.020671,-0.28938 -0.020671,-0.031 -0.051677,-0.0724 -0.031006,-0.0413 -0.010335,-0.0827 -0.062012,-0.11369 -0.1653645,-0.18604 -0.1033529,-0.0723 -0.217041,-0.13436 -0.1136882,-0.062 -0.2170411,-0.13436 -0.1033528,-0.0723 -0.1653645,-0.18603 -0.082682,0.0207 -0.1653646,0 -0.072347,-0.031 -0.1653646,-0.0413 -0.020671,-0.0413 -0.041341,-0.093 -0.020671,-0.062 -0.010335,-0.093 0.010335,-0.031 0.041341,-0.031 0.041341,-0.0103 0.062012,-0.031 0.072347,0.0517 0.2067058,0.0517 0.1343587,-0.0103 0.1963704,0.0723 0.217041,-0.031 0.4650879,0.0103 0.2583821,0.0413 0.4857584,0 0.1963705,0.031 0.4030762,0.031 0.2067057,-0.0103 0.4134114,-0.0207 0.2067058,-0.0207 0.4030762,-0.0207 0.1963704,-0.0103 0.3824056,0.0207 0.020671,0.0517 0,0.0723 -0.020671,0.0207 0,0.0724 z m -0.9198405,0.031 q -0.020671,-0.0207 -0.051676,0 -0.031006,0.0207 -0.072347,0 0.041341,0.0413 0.072347,0.0413 0.031006,-0.0103 0.051676,-0.0413 z m -0.6304524,0.15503 q -0.051677,0 -0.082682,0.0207 -0.020671,0.0103 -0.062012,-0.0207 0,0.062 -0.062012,0.0827 -0.051676,0.0207 -0.1343587,0.0413 0,0.062 0.020671,0.10335 0.020671,0.031 0.041341,0.0723 0.093018,-0.1447 0.1653646,-0.1757 0.082682,-0.0413 0.1136882,-0.12403 z m 0.289388,0.19637 q -0.062012,-0.0103 -0.082682,0.031 -0.010335,0.031 -0.072347,0.0207 -0.051677,0.093 -0.144694,0.12402 -0.093018,0.031 -0.1756999,0.0827 -0.020671,0.0827 0.010335,0.16536 0.031006,0.0827 -0.020671,0.13436 0.031006,0.0103 0.031006,0.0413 0,0.0207 -0.010335,0.0517 0,0.031 -0.010335,0.062 0,0.031 0.031006,0.0413 0.031006,-0.0517 0.062012,-0.093 0.041341,-0.0517 0.051676,-0.11369 -0.020671,-0.0517 -0.041341,-0.13435 0.072347,-0.12403 0.1963704,-0.20671 0.1240234,-0.093 0.1756999,-0.20671 z m -0.7338053,-0.36173 q -0.1033529,-0.0413 -0.2377116,-0.0413 -0.1240235,0 -0.2273763,0.0207 0.051676,0.0413 0.093017,0.062 0.041341,0.0103 0.093018,0.0413 0.051677,-0.0517 0.144694,-0.0413 0.093018,0.0103 0.1343588,-0.0413 z m -3.141927,1.07487 q -0.041341,0.031 -0.1033529,0.0413 -0.051676,0 -0.072347,0.0207 0.041341,0.0517 0.1033529,0.0207 0.062012,-0.031 0.072347,-0.0827 z m -0.041341,-0.0827 q -0.1136881,0.0413 -0.1550293,0.0517 -0.1033528,0.0413 -0.1136881,0.062 -0.010335,0.0207 -0.010335,0.0517 0.020671,0.0207 0.051676,0.0103 0.041341,-0.0103 0.062012,-0.0207 0.1033529,-0.0724 0.1653646,-0.15503 z m -0.082682,-0.94051 q -0.051676,0.0103 -0.051676,-0.031 0,-0.0413 -0.041341,-0.0413 -0.041341,0.12402 -0.072347,0.14469 -0.020671,0.0103 -0.051677,0.031 -0.010335,-0.093 0,-0.10335 0.020671,-0.0103 0.031006,-0.0413 -0.031006,-0.0207 -0.051677,-0.0103 -0.020671,0.0103 -0.041341,0.031 -0.010335,0.0207 -0.031006,0.0413 -0.020671,0.0207 -0.051676,0.0103 0,0.0517 -0.062012,0.0724 -0.051676,0.0207 -0.082682,-0.0207 -0.082682,0.031 -0.082682,0.0517 0,0.0103 -0.020671,0.0103 -0.020671,-0.0413 -0.072347,-0.0413 -0.051676,-0.0103 -0.1033528,-0.0103 0.1240234,-0.0413 0.1963704,-0.031 0.072347,0.0103 0.1240235,-0.031 -0.051677,-0.0517 -0.1033529,-0.0207 -0.051676,0.031 -0.1033529,0 -0.010335,-0.0103 -0.041341,-0.0207 -0.020671,-0.0103 -0.062012,-0.031 -0.062012,0.0517 -0.1136882,0.062 -0.041341,0.0103 -0.1136881,-0.0207 0.02067,0.0517 0.010335,0.0723 -0.010335,0.0103 -0.031006,0.0103 -0.020671,0 -0.041341,0 -0.010335,0 0,0.031 -0.051677,-0.0207 -0.031006,-0.0413 0.020671,-0.031 0.020671,-0.0723 -0.082682,-0.0103 -0.1343588,0.0207 -0.051676,0.0207 -0.1343587,0.0207 -0.010335,-0.031 -0.041341,-0.0517 -0.020671,-0.0207 -0.041341,-0.0413 -0.010335,-0.0724 -0.093017,-0.062 -0.093018,0.0103 -0.1963705,0 0.020671,0.0827 0.072347,0.12402 0.051676,0.031 0.1033529,0.0724 0.062012,-0.0724 0.072347,-0.0827 0.020671,-0.0207 0.041341,-0.0103 0.010335,0.0517 0.041341,0.0517 0.031006,0 0.031006,0.062 -0.041341,0 -0.082682,0.0103 -0.031006,0 -0.082682,0.0103 0.020671,0.0723 0.020671,0.093 0,0.0207 0.020671,0.031 0.1033529,0.10336 0.144694,0.0827 0,0.0517 -0.010335,0.0723 -0.010335,0.0103 -0.020671,0.062 0.051676,0.10336 0.1653645,0.1757 -0.093018,0.0207 -0.082682,0.0413 0.010335,0.0103 -0.031006,0.0517 0.020671,0.0207 0.041341,0.0413 0.020671,0.0207 0.020671,0.0723 0.093018,0 0.1136882,0 -0.051676,0.12402 -0.031006,0.1757 0.031006,0.0413 0.1136881,0.0207 0.031006,-0.0723 0.051677,-0.0827 0.031006,-0.0207 0.082682,0 0.041341,-0.093 0.1033528,-0.10336 0.082682,-0.0517 0.1240235,-0.0827 0.051676,-0.0413 0.1240234,0 0,-0.0413 0.010335,-0.10335 0.010335,-0.062 0.041341,-0.0827 0.082682,0.062 0.093018,0.0827 0.072347,0 0.1033529,-0.0517 -0.041341,-0.093 0.082682,-0.10335 0.1240235,-0.0103 0.1756999,-0.0103 -0.1033528,-0.0517 -0.093018,-0.093 0.010335,-0.0413 0,-0.062 0.051676,0.031 0.082682,0 0.041341,-0.0413 0.062012,-0.0827 l -0.1653645,-0.0103 q -0.041341,0.0413 -0.072347,0.031 -0.020671,-0.0207 -0.041341,-0.0413 0.1240235,-0.0723 0.1653646,-0.10335 0.041341,-0.0413 0.1136881,-0.0517 z m -0.144694,1.16788 q -0.082682,-0.0413 -0.144694,-0.062 0.020671,0.0723 0.010335,0.10335 0,0.031 0,0.062 0.1240234,-0.031 0.1343587,-0.10336 z m 0.3513998,0.1757 q -0.1033529,-0.0207 -0.1963705,0.0517 -0.093018,0.062 -0.144694,0.13436 -0.062012,0.031 -0.082682,0.062 -0.020671,0.0207 -0.041341,0.0413 -0.020671,0.0207 -0.031006,0.0413 -0.010335,0.0207 0.010335,0.0517 0.1756999,-0.13436 0.3513997,-0.20671 0,-0.0413 0.020671,-0.0517 0.031006,-0.0207 0.051676,-0.0207 0.031006,-0.0103 0.041341,-0.031 0.020671,-0.0207 0.020671,-0.0723 z m -0.5270996,-0.11368 q -0.020671,-0.062 -0.062012,-0.0517 -0.031006,0 -0.051676,0 0,0.0724 0.031006,0.062 0.031006,-0.0207 0.082682,-0.0103 z m 0.5891113,0.37207 q -0.093018,0.0517 -0.1963705,0.093 -0.1033528,0.031 -0.1240234,0.13436 0.031006,0 0.051676,-0.0103 0.020671,-0.0207 0.041341,-0.0413 0.020671,-0.0207 0.041341,-0.031 0.020671,-0.0103 0.051676,0.0207 0,-0.0827 0.051677,-0.093 0.062012,-0.0103 0.082682,-0.0723 z m -0.2583822,-0.82683 q 0.010335,-0.0723 -0.020671,-0.10335 -0.020671,-0.031 0,-0.10335 -0.1136881,0.062 -0.1653645,0.062 -0.051677,0 -0.1136882,0.0103 -0.010335,0.0724 -0.1240234,0.0724 -0.1033529,0.062 -0.093018,0.093 0.020671,0.0207 0,0.0517 -0.031006,-0.031 -0.051676,-0.0207 -0.020671,0.0103 -0.051676,0.031 -0.020671,0.0207 -0.041341,0.0413 -0.020671,0.0207 -0.051676,0 -0.1240235,0.0723 -0.1756999,0.1447 -0.041341,0.062 -0.144694,0.0723 -0.020671,0.0723 -0.041341,0.0723 -0.010335,-0.0103 -0.051677,0 0,0.0517 0.041341,0.11369 0.062012,-0.0103 0.093017,-0.0517 0.041341,-0.0517 0.1240235,-0.0517 0.031006,-0.0827 0.1033528,-0.10335 0.082682,-0.0207 0.1240235,-0.093 0.1136881,-0.0517 0.2067057,-0.13435 0.093018,-0.093 0.217041,-0.1447 0.010335,-0.0517 0.051676,-0.0724 0.041341,-0.031 0.093018,-0.0103 -0.1756999,0.23771 -0.4650879,0.34106 0,0.0413 -0.020671,0.062 -0.020671,0.0103 -0.051676,0.0207 -0.031006,0 -0.062012,0.0103 -0.020671,0.0103 -0.020671,0.0413 0.072347,0.0207 0.1136882,-0.0413 0.041341,-0.062 0.093018,-0.0103 -0.072347,0.0517 -0.144694,0.0827 -0.072347,0.031 -0.1240235,0.11369 -0.051676,0.0207 -0.1136881,0.0413 -0.062012,0.0207 -0.1136882,0.0517 -0.041341,0.0207 -0.072347,0.0723 -0.02067,0.0413 0,0.11369 0.051677,0.0207 0.072347,0 0.031006,-0.0207 0.051676,0 0.020671,-0.093 0.093018,-0.12402 0.072347,-0.0414 0.1550293,-0.062 -0.010335,-0.0517 0.062012,-0.11368 0.082682,-0.0724 0.1343588,-0.0827 0.072347,-0.031 0.093018,-0.0413 0.031006,-0.0103 0.010335,-0.0517 0.1033529,-0.0517 0.093018,-0.0724 -0.1860351,0.062 -0.1860351,0.0103 0.1343587,-0.0517 0.2583821,-0.10335 0.1240234,-0.0517 0.217041,-0.13436 z m 0.4547526,1.26091 q -0.051676,-0.062 -0.1343587,-0.0103 -0.072347,0.0413 -0.144694,0.0517 0,0.093 -0.072347,0.093 0.093018,0 0.1756998,-0.0413 0.093018,-0.0413 0.1756999,-0.093 z m -0.7854817,-0.74414 q -0.082682,0.0517 -0.1550293,0.031 -0.072347,-0.0207 -0.1240235,0.0413 0.041341,0.10336 0.062012,0.10336 0.020671,0 0.041341,0.0103 0.082682,-0.12402 0.1240234,-0.12402 0.041341,-0.0103 0.051676,-0.062 z m 0.2687174,0.60978 q -0.020671,-0.0207 -0.082682,-0.031 -0.051676,-0.0103 -0.051676,0.0517 0.031006,0.0103 0.072347,0.0207 0.051676,0 0.062012,-0.0413 z m 0.651123,0.46509 q -0.010335,-0.031 -0.020671,-0.0517 -0.010335,-0.031 -0.010335,-0.0724 -0.082682,0.031 -0.217041,0.10336 -0.1240235,0.0723 -0.1033529,0.10335 -0.082682,0.031 -0.1240234,0.093 0.1550293,-0.062 0.2687174,-0.0827 0.1240234,-0.031 0.2067057,-0.093 z m -1.1678873,-0.83716 q -0.041341,-0.10335 -0.1136882,-0.0827 -0.062012,0.0103 -0.041341,0.10335 0.093018,-0.0723 0.1136881,-0.031 0.020671,0.031 0.041341,0.0103 z m 0.9508463,0.28939 q -0.031006,-0.0207 -0.031006,-0.062 0,-0.0517 -0.031006,-0.0723 -0.051676,0.0207 -0.1240234,0.0723 -0.062012,0.0517 -0.1136882,0.031 -0.031006,0.0724 -0.093018,0.10335 -0.051676,0.031 -0.093018,0.0827 -0.082682,-0.0207 -0.1136882,0.031 -0.031006,0.0517 -0.093018,0.093 -0.082682,0.031 -0.1136881,0.0413 -0.031006,0.0103 -0.041341,-0.0103 0.051676,-0.0207 0.041341,-0.0723 -0.010335,-0.0517 0.051676,-0.062 -0.144694,0.0103 -0.2790527,0.093 -0.1240234,0.0827 -0.2273763,0.18604 0.031006,0.0517 0.082682,0.0827 0.1033529,0.0413 0.1136881,0.0723 0.010335,0.0207 0.020671,0 0.072347,-0.0723 0.1756999,-0.11369 0.1033528,-0.0517 0.2067057,-0.10335 -0.144694,0.13436 -0.2687174,0.18603 -0.1136882,0.0517 -0.1963705,0.16537 0.082682,0.0413 0.1343587,0.0103 0.051676,-0.0413 0.072347,-0.093 0.1240235,-0.031 0.2067058,-0.093 0.082682,-0.0723 0.1550293,-0.15503 0.041341,0 0.072347,0 0.041341,0 0.093018,-0.0207 0.031006,-0.0413 0.072347,-0.0827 0.041341,-0.0517 0.072347,-0.0827 -0.1136881,-0.0103 -0.1550292,0.0517 -0.041341,0.062 -0.144694,0.062 -0.1136882,0.0413 -0.1136882,0.0207 0.020671,-0.031 0.041341,-0.0517 0.031006,-0.0207 0.051677,-0.0517 0.062012,0.031 0.093018,0 0.041341,-0.031 0.082682,-0.0724 0.1240235,-0.0517 0.2273763,-0.0723 0.1136882,-0.031 0.1653646,-0.11368 z m -0.2583821,0.75447 q -0.020671,0.0207 -0.051676,0.031 -0.020671,0.0103 -0.072347,0 0.082682,0.0207 0.1033529,0.0207 0.031006,0 0.020671,-0.0517 z m -0.5891113,-1.00252 q -0.020671,0.0413 -0.072347,0.062 -0.041341,0.0103 -0.082682,-0.031 0,0.062 -0.020671,0.0827 -0.020671,0.0103 -0.072347,0 -0.010335,0.062 -0.082682,0.10335 -0.072347,0.0413 -0.1033529,0.0207 -0.010335,0.0517 -0.062012,0.0827 -0.041341,0.0207 -0.031006,0.10336 0.051676,0.0103 0.062012,0.0517 0.010335,0.031 -0.010335,0.0827 0.041341,0.0207 0.072347,-0.0207 0.031006,-0.0517 0.1033529,-0.0103 0.041341,-0.10335 0.082682,-0.093 0.041341,0.0103 0.062012,-0.0413 0.010335,-0.0517 0.010335,-0.10335 0.010335,-0.062 0.082682,-0.0517 0.031006,-0.0827 0.031006,-0.12402 0.031006,-0.0103 0.051676,-0.0517 0.020671,-0.0413 -0.020671,-0.062 z m 1.1988931,1.11621 q -0.072347,-0.12402 -0.093018,-0.13436 -0.1653646,0.0827 -0.2790528,0.18604 -0.1136881,0.10335 -0.2583821,0.18603 -0.1963704,0.10335 -0.2790527,0.27905 0.144694,-0.0413 0.2377115,-0.13435 0.1033529,-0.10336 0.2790528,-0.12403 0.020671,-0.031 0.031006,-0.0517 0.010335,-0.031 0.041341,-0.0413 0.051676,-0.0207 0.082682,-0.0414 0.041341,-0.031 0.093017,-0.0413 0.051677,-0.0207 0.093018,-0.031 0.041341,-0.0207 0.051676,-0.0517 z m 0.1756999,0.81649 q -0.020671,-0.031 -0.062012,-0.031 -0.031006,0 -0.051676,0.0517 0.020671,0.0207 0.062012,0.0103 0.041341,-0.0103 0.051676,-0.031 z m 0.2480469,0.23771 q -0.072347,-0.0207 -0.1136882,0.0207 -0.031006,0.0413 -0.020671,0.0827 0.051676,0.0103 0.051676,-0.0207 0.010335,-0.031 0.062012,-0.0207 z m -0.6821289,-1.24023 q -0.072347,0.0413 -0.1653646,0.062 -0.082682,0.0207 -0.093018,0.10335 -0.1343587,0.0207 -0.1550293,0.062 -0.010335,0.031 -0.062012,0.0103 -0.020671,0.0413 -0.082682,0.0827 -0.062012,0 -0.1136881,0.0517 -0.051676,0.0413 -0.1033529,0.0827 -0.041341,0.031 -0.093017,0.031 -0.051677,0 -0.1033529,-0.0827 0.1136881,-0.0517 0.1860351,-0.14469 0.082682,-0.093 0.2273763,-0.11369 0.020671,-0.10335 0.093018,-0.13436 0.082682,-0.031 0.1240234,-0.11369 0.1033529,-0.062 0.1860352,-0.10335 0.082682,-0.0517 0.1240234,-0.13436 -0.2790527,0.11369 -0.5684407,0.26872 -0.2790527,0.15503 -0.5167643,0.34106 0.020671,0.0103 0.020671,0.0517 0,0.0413 -0.010335,0.062 0.041341,0.0207 0.062012,0.0723 0.020671,0.0413 0.041341,0.093 0.020671,0.0517 0.041341,0.10335 0.031006,0.0413 0.082682,0.0517 0.051676,0 0.062012,-0.031 0.020671,-0.031 0.062012,0.0103 0.041341,-0.0827 0.093018,-0.0827 0.020671,-0.0413 0.041341,-0.0724 0.020671,-0.0413 0.072347,-0.0517 0.144694,-0.1447 0.289388,-0.19637 0.1136882,-0.1447 0.1756999,-0.16537 0.062012,-0.031 0.082682,-0.11368 z m 0.2997233,0.3824 q -0.1240234,-0.0724 -0.1860352,-0.0207 -0.051676,0.0517 -0.1653645,0.062 -0.010335,0.062 -0.062012,0.0723 -0.041341,0.0103 -0.1033528,0.0103 -0.2067057,0.15503 -0.3410645,0.23772 -0.1240234,0.0827 -0.2687174,0.16536 0.010335,0.0827 0,0.12402 -0.010335,0.0413 0.041341,0.0723 0.2790528,-0.15503 0.5167644,-0.32039 0.2377115,-0.1757 0.4754231,-0.38241 z m 0.1860351,0.41341 q -0.1033528,0 -0.1343587,0.0517 -0.020671,0.0517 -0.1136881,0.0517 0.082682,-0.0827 0.072347,-0.0827 0,0 0,-0.0207 0.082682,-0.0103 0.1033528,-0.12402 -0.062012,-0.0207 -0.1033528,0 -0.031006,0.0103 -0.062012,0.0413 -0.031006,0.031 -0.072347,0.062 -0.041341,0.0207 -0.1136882,0.0103 -0.010335,0.0517 -0.062012,0.0723 -0.041341,0.0103 -0.062012,0.0414 0.031006,-0.12403 0.1033528,-0.1447 0.082682,-0.031 0.1550293,-0.0517 -0.020671,-0.062 0.041341,-0.0723 0.072347,-0.0103 0.1033528,-0.0413 -0.093017,-0.0207 -0.1756998,0.0103 -0.082682,0.031 -0.1653646,0.0827 -0.1136882,0.0724 -0.144694,0.10336 -0.020671,0.031 -0.072347,0.0517 -0.051676,0.031 -0.1136882,0.0827 -0.062012,0.0517 -0.072347,0.10335 0.062012,-0.0517 0.1240235,-0.0827 0.062012,-0.031 0.1240234,-0.062 -0.082682,0.16537 -0.1860352,0.16537 -0.020671,0.062 -0.1033528,0.10335 -0.072347,0.031 -0.144694,0.0724 -0.072347,0.031 -0.1136882,0.093 -0.041341,0.0517 0.020671,0.14469 0.1240234,-0.0517 0.217041,-0.15503 0.093018,-0.10335 0.217041,-0.0517 -0.082682,0.0207 -0.093018,0.0517 0,0.0207 -0.1033528,0.0103 0,0.0517 -0.041341,0.093 -0.031006,0.031 -0.082682,0.0207 0.041341,0.0517 0.051676,0.0723 0.020671,0.0103 0.062012,0 0.041341,-0.0723 0.093018,-0.10335 0.062012,-0.031 0.1136881,-0.0207 -0.020671,0.0517 -0.082682,0.0517 -0.051676,0 -0.072347,0.031 -0.020671,0.0517 -0.093018,0.093 -0.062012,0.031 -0.082682,0.10335 0.144694,-0.0207 0.2273763,-0.10335 0.082682,-0.093 0.1653645,-0.18604 0.072347,0 0.1240235,-0.031 0.062012,-0.031 0.1136881,-0.062 0.051676,-0.0413 0.1033529,-0.0723 0.062012,-0.0413 0.144694,-0.0413 0,-0.093 -0.041341,-0.0724 -0.041341,0.0103 -0.062012,-0.031 -0.062012,0.0517 -0.062012,0.093 0,0.031 -0.041341,0.0207 -0.062012,-0.0827 -0.1033529,-0.12402 0.082682,0.0103 0.1343587,0 0.062012,-0.0207 0.144694,-0.0103 0.072347,-0.10335 0.051676,-0.10335 -0.010335,0 -0.010335,-0.0207 0.041341,-0.031 0.1033528,-0.0413 0.062012,-0.0103 0.072347,-0.0723 z m 0.5581055,1.48828 q -0.031006,-0.0517 -0.062012,-0.0207 -0.020671,0.0207 -0.072347,0.0207 -0.020671,0.062 -0.031006,0.0827 -0.010335,0.0207 0.031006,0.0517 0.031006,-0.031 0.072347,-0.0517 0.041341,-0.031 0.062012,-0.0827 z m -0.1963704,0.11369 q -0.072347,0.0207 -0.1343588,0.0723 -0.062012,0.0413 -0.062012,0.10335 0.072347,-0.0724 0.1860352,-0.093 z m -1.3849284,-1.33325 q -0.051676,0.0207 -0.1033528,0.0413 -0.041341,0.0207 -0.072347,0.062 0.051677,0.0103 0.062012,-0.0103 0.020671,-0.031 0.072347,-0.0103 z m 0.7544759,0.31006 q -0.062012,0 -0.1343587,0.0517 -0.062012,0.0517 -0.1136882,0.10336 -0.1343587,0.0517 -0.2273763,0.14469 -0.082682,0.0827 -0.217041,0.13436 0.010335,0.0517 -0.020671,0.062 -0.020671,0.0103 -0.010335,0.0517 0.1033528,-0.062 0.1860351,-0.062 0.082682,-0.093 0.1550293,-0.1757 0.082682,-0.0827 0.1653646,-0.062 0.041341,-0.0827 0.1136881,-0.11369 0.082682,-0.0413 0.1033529,-0.13436 z m 0.7544759,0.78548 q -0.020671,-0.0413 -0.051676,-0.0413 -0.020671,0 -0.051677,0.0103 -0.031006,0.0103 -0.062012,0.031 -0.031006,0.0207 -0.062012,0.031 -0.010335,-0.10336 0.010335,-0.10336 0.031006,0 0.041341,-0.0207 -0.031006,-0.0207 -0.062012,0.0103 -0.031006,0.031 -0.082682,0.0103 -0.010335,0.0413 -0.041341,0.0724 -0.031006,0.0207 -0.051677,0.0517 0.051677,0.0103 0.062012,-0.0103 0.010335,-0.031 0.062012,-0.0207 -0.051677,0.13436 -0.093018,0.14469 -0.031006,0 -0.062012,0 -0.072347,0.0724 -0.1343587,0.12403 -0.062012,0.0413 -0.1136882,0.093 -0.051676,0.0723 -0.072347,0.0723 -0.020671,-0.0103 -0.072347,0 -0.010335,0.0723 -0.072347,0.0517 -0.062012,-0.0207 -0.1136881,0.0207 -0.020671,-0.0723 0,-0.11369 0.031006,-0.0413 0.062012,-0.0827 0.082682,-0.0207 0.1343587,-0.0723 0.062012,-0.0517 0.1136881,-0.10335 0.051676,-0.0517 0.1136882,-0.093 0.062012,-0.0517 0.1550293,-0.062 0.010335,-0.062 0.051676,-0.10335 0.051676,-0.0413 0.1033529,-0.0723 0.062012,-0.0413 0.1033528,-0.0827 0.051677,-0.0517 0.062012,-0.13436 -0.1033529,0.0413 -0.1860352,0.093 -0.082682,0.0517 -0.1033529,-0.062 0.1550293,0.062 0.1343588,0.0103 -0.010335,-0.0517 0,-0.11369 0.072347,-0.031 0.072347,-0.0413 0.010335,-0.0207 0.051676,-0.0207 0.020671,-0.062 -0.010335,-0.0724 -0.031006,-0.0207 -0.041341,-0.062 -0.051677,0.0207 -0.093018,0.0517 -0.031006,0.0207 -0.093018,0.0207 0.010335,0.0827 -0.041341,0.093 -0.041341,0.0103 -0.093018,0.0207 l -0.072347,0.12402 q -0.1033529,0.0827 -0.1653646,0.093 0,-0.10335 0.020671,-0.12403 0.051676,0 0.072347,-0.031 0.031006,-0.031 0.051676,-0.062 0.020671,-0.031 0.051677,-0.0517 0.041341,-0.0207 0.1136881,-0.0103 0.041341,-0.0723 0.062012,-0.093 0.031006,-0.031 0.082682,-0.0413 -0.093018,-0.0517 -0.1756999,0 -0.072347,0.0517 -0.1550293,0.10335 -0.072347,0.0517 -0.1550292,0.10335 -0.072347,0.0413 -0.1756999,0.0517 -0.082682,0.10335 -0.2067057,0.19637 -0.1136882,0.093 -0.2583822,0.0723 0.020671,0.0413 0.031006,0.093 0.010335,0.0517 0.041341,0.093 0.051676,-0.0103 0.072347,-0.0413 0.031006,-0.031 0.093018,-0.0103 0.010335,-0.0827 0.062012,-0.093 0.062012,-0.0207 0.1136882,-0.062 0,-0.0517 0.062012,-0.0827 0.072347,-0.031 0.1136881,-0.0723 0.041341,0.13435 -0.031006,0.18603 -0.062012,0.0413 -0.1033529,-0.0103 -0.1033529,0.0827 -0.093018,0.093 0.020671,0.0103 0.010335,0.0413 -0.051676,0.0207 -0.072347,0.062 -0.020671,0.031 -0.093018,0.0207 0.010335,0.0723 -0.041341,0.0723 -0.051676,-0.0103 -0.051676,0.0414 0.1136881,-0.0207 0.1963704,-0.031 0.082682,-0.0103 0.144694,-0.062 0.1033529,-0.062 0.082682,-0.062 -0.020671,-0.0103 -0.010335,-0.031 0.031006,-0.0103 0.051676,-0.0413 0.031006,-0.031 0.062012,-0.0103 -0.031006,0.0517 -0.072347,0.10336 -0.031006,0.0517 -0.1136882,0.0413 -0.020671,0.11369 -0.1240234,0.062 -0.041341,0.0413 -0.062012,0.093 -0.020671,0.0517 -0.062012,0.0827 0.020671,0.14469 0.041341,0.28939 0.031006,0.14469 0.1240234,0.22737 0.051676,-0.0517 0.1240234,-0.11368 0.072347,-0.0724 0.1446941,-0.0724 0.031006,-0.093 0.082682,-0.12402 0.051676,-0.0414 0.1136882,-0.11369 0.031006,-0.0207 0.082682,-0.0413 0.051676,-0.031 0.093018,-0.0414 0.093018,-0.0827 0.082682,-0.0517 -0.010335,0.0207 0.020671,0 0.020671,-0.031 0.031006,-0.0517 0.02067,-0.031 0.031006,-0.0724 0.051677,-0.0827 0.1240235,-0.10335 0.082682,-0.0207 0.1343587,-0.062 z m 0.144694,0.34106 q -0.1756999,-0.031 -0.3100586,0.093 -0.1343587,0.11369 -0.289388,0.19637 -0.072347,0.093 -0.082682,0.0723 0,-0.0207 -0.020671,-0.0207 0,0.0827 -0.072347,0.0724 -0.062012,-0.0207 -0.1033528,0.0207 -0.062012,0.10335 -0.1756999,0.16536 -0.1033529,0.0517 -0.1033529,0.16537 0.051677,0.0207 0.082682,-0.031 0.041341,-0.062 0.082682,-0.093 0.2067057,-0.0723 0.3410645,-0.2067 0.144694,-0.1447 0.3410644,-0.23771 0.1550293,-0.0827 0.1756999,-0.1447 0.031006,-0.062 0.1343587,-0.0517 z m 0.1550293,0.19638 q -0.062012,-0.031 -0.1136882,-0.0103 -0.041341,0.0103 -0.082682,0.0413 -0.031006,0.031 -0.072347,0.062 -0.041341,0.031 -0.082682,0.0413 -0.041341,0.0827 -0.1240235,0.10336 -0.082682,0.0207 -0.1136881,0.093 -0.144694,0.062 -0.2583822,0.15503 -0.1136881,0.0827 -0.2067057,0.18604 -0.082682,0.0207 -0.1136881,0.093 0.041341,0.0723 0.072347,0.1757 0.020671,-0.0517 0.051676,-0.0517 0.041341,0 0.062012,0 0,-0.0517 0.062012,-0.093 0.072347,-0.0413 0.1550293,-0.062 0.1033529,-0.14469 0.289388,-0.24805 0.1963705,-0.11368 0.3513998,-0.22737 0.1033528,-0.0207 0.1240234,-0.093 0.031006,-0.0827 0,-0.16536 z m 0.289388,0.51676 q -0.1240234,0.0207 -0.1343587,0.0413 0,0.0103 -0.020671,0.031 -0.072347,0.0723 -0.1550293,0.093 -0.082682,0.0207 -0.1136881,0.0827 -0.051677,0.031 -0.1033529,0.10335 -0.051676,0.0723 -0.1653646,0.0413 -0.072347,0.15503 -0.2067057,0.26872 -0.1343587,0.11369 -0.217041,0.23771 0.1033529,-0.0724 0.1860351,-0.13436 0.093018,-0.0724 0.2067058,-0.11369 0.031006,-0.0517 0.082682,-0.10335 0.062012,-0.0517 0.1343587,-0.0413 0.051676,-0.0724 0.1343587,-0.12403 0.082682,-0.0517 0.1550293,-0.10335 0.082682,-0.0517 0.1343587,-0.11369 0.062012,-0.0723 0.082682,-0.16536 z m -0.1343587,-0.13436 q -0.020671,0 -0.062012,-0.0103 -0.041341,-0.0103 -0.072347,0.0103 -0.1240235,0.062 -0.2583822,0.18604 -0.1240234,0.11368 -0.2687174,0.15503 0.02067,0.031 -0.020671,0.0517 -0.031006,0.0207 -0.082682,0.0103 -0.020671,0.0413 -0.051676,0.0827 -0.020671,0.031 -0.072347,0.031 -0.1240235,0.0723 -0.1860352,0.1447 -0.062012,0.0723 -0.144694,0.12402 0.010335,0.11369 0.062012,0.21704 0.093018,0 0.1136882,-0.0827 0.031006,-0.0827 0.1136881,-0.0827 0.1343587,-0.11369 0.1963705,-0.20671 0.062012,-0.10335 0.1653645,-0.10335 0.041341,-0.0517 0.041341,-0.0724 0,-0.031 0.041341,-0.0413 0.1033529,-0.062 0.1240235,-0.093 0.031006,-0.0413 0.082682,-0.031 -0.020671,0 0,-0.0207 0.020671,-0.031 0.051676,-0.062 0.031006,-0.031 0.062012,-0.062 0.041341,-0.031 0.051676,-0.0413 0.031006,-0.0207 0.072347,-0.031 0.051677,-0.0207 0.041341,-0.0724 z m -0.1653646,0.79582 q -0.1136881,0.14469 -0.2377116,0.27905 -0.1240234,0.12402 -0.2067057,0.29972 0.031006,0.10336 0.010335,0.11369 -0.010335,0 -0.031006,0.0103 0.010335,0.062 -0.041341,0.062 -0.051677,0 -0.072347,0.031 -0.051677,-0.0413 -0.051677,-0.14469 0,-0.11369 0.072347,-0.16536 0.010335,-0.0517 0.062012,-0.13436 0.062012,-0.0827 0.144694,-0.0827 0,-0.12403 0.062012,-0.1757 0.062012,-0.062 0.1136881,-0.12403 -0.051676,-0.0413 -0.1136881,0 -0.051676,0.0413 -0.1136882,0.12403 -0.072347,0.093 -0.1136881,0.10335 -0.031006,0 -0.082682,0.0207 -0.051676,0.10335 -0.1756999,0.14469 -0.1240234,0.0413 -0.144694,0.1447 -0.010335,0.062 0.072347,0.1757 0.082682,0.10335 0.1033529,0.15503 0.020671,0.0517 0.031006,0.062 0.020671,0.0103 0.041341,0.0517 0.031006,0.13436 0.093018,0.1757 0.062012,0.0413 0.082682,0.0827 0.010335,-0.0724 0.051676,-0.12403 0.041341,-0.0517 0.072347,-0.093 0.041341,-0.0517 0.051676,-0.10336 0.020671,-0.0517 -0.02067,-0.13436 0.041341,-0.031 0.051676,-0.0517 0.020671,-0.0207 0.062012,-0.0207 0.082682,-0.093 0.1033529,-0.23772 0.02067,-0.15502 0.1033528,-0.23771 -0.010335,-0.0723 0.031006,-0.11368 0.041341,-0.0517 -0.010335,-0.093 z m -2.1497395,-5.90145 q -0.082682,-0.0724 -0.062012,-0.062 0.031006,0 0.010335,-0.0413 0.051676,0.0517 0.051676,0.10335 z m -0.1963705,0.0517 q -0.031006,0.0207 -0.051676,0.0517 -0.020671,0.0207 -0.072347,0.031 0.010335,-0.0517 0.041341,-0.062 0.041341,-0.0103 0.082682,-0.0207 z m -0.2480468,0.28938 q -0.031006,-0.0103 -0.062012,-0.0103 -0.031006,-0.0103 -0.051676,-0.031 0.072347,0 0.093018,0.0103 0.020671,0 0.020671,0.031 z m 1.5399576,2.58383 q 0.010335,0.062 -0.031006,0.0723 -0.041341,0 -0.051677,0.0517 -0.031006,-0.093 0,-0.0827 0.031006,0 0.041341,-0.0413 z m -0.1963704,0.29972 q -0.1240235,0.031 -0.1343587,0.0517 -0.010335,0.0207 -0.020671,0.0517 -0.093018,-0.0827 -0.1033529,-0.0827 0,0 0,-0.0207 0.041341,-0.0207 0.072347,-0.031 0.041341,-0.0207 0.093018,-0.0207 z m 0.5684407,0.71313 q -0.1240234,0.0207 -0.144694,0.0517 -0.010335,0.031 -0.031006,0.0517 -0.051677,-0.031 -0.020671,-0.0517 0.041341,-0.0207 0.041341,-0.0724 0.062012,0.0207 0.082682,0 0.031006,-0.0207 0.072347,0.0207 z"
         style="font-style:normal;font-variant:normal;font-weight:normal;font-stretch:normal;font-size:10.58333302px;font-family:'Fredericka the Great';-inkscape-font-specification:'Fredericka the Great, Normal';font-variant-ligatures:normal;font-variant-caps:normal;font-variant-numeric:normal;font-feature-settings:normal;text-align:start;writing-mode:lr-tb;text-anchor:start;stroke-width:0.26458332"
         id="path102" />
    </g>
  </g>
</svg>
